<svg width="16" height="16" viewBox="0 0 16 16" fill="none" xmlns="http://www.w3.org/2000/svg">
<path fill-rule="evenodd" clip-rule="evenodd" d="M15.9304 6.95557H9.04433V0.0677221C8.35172 -0.022574 7.65032 -0.022574 6.95771 0.0677221V6.95557H0.0704627C-0.0198255 7.64825 -0.0198255 8.34971 0.0704627 9.04238H6.95771V15.9302C7.65032 16.0205 8.35172 16.0205 9.04433 15.9302V9.04238H15.9316C16.0219 8.34971 16.0219 7.64825 15.9316 6.95557H15.9304ZM4.87147 3.82564V2.78223H3.82816V3.82564H2.78484V4.86904H3.82816V5.91244H4.87147V4.86904H5.91478V3.82564H4.87147ZM12.1736 2.78223V3.82564H13.2214V4.86904H12.1781V5.91244H11.1348V4.86904H10.0915V3.82564H11.1348V2.78223H12.1736ZM4.87147 11.1324V10.089H3.82816V11.1324H2.78484V12.1758H3.82816V13.2192H4.87147V12.1758H5.91478V11.1324H4.87147ZM12.1736 10.089V11.1324H13.2214V12.1758H12.1781V13.2192H11.1348V12.1758H10.0915V11.1324H11.1348V10.089H12.1736Z" fill="#FF3B30"/>
</svg>
