<?xml version="1.0" standalone="no"?>
<!DOCTYPE svg PUBLIC "-//W3C//DTD SVG 20010904//EN"
 "http://www.w3.org/TR/2001/REC-SVG-20010904/DTD/svg10.dtd">
<svg version="1.0" xmlns="http://www.w3.org/2000/svg"
 width="2048.000000pt" height="2048.000000pt" viewBox="0 0 2048.000000 2048.000000"
 preserveAspectRatio="xMidYMid meet">
<metadata>
Created by potrace 1.16, written by Peter Selinger 2001-2019
</metadata>
<g transform="translate(0.000000,2048.000000) scale(0.100000,-0.100000)"
fill="#000000" stroke="none">
<path d="M9620 19331 l0 -540 -42 -5 c-24 -3 -117 -12 -208 -21 -1034 -98
-1925 -428 -2589 -959 -156 -124 -407 -374 -525 -521 -584 -732 -858 -1663
-807 -2747 24 -529 97 -949 235 -1354 334 -982 989 -1687 2051 -2209 414 -204
851 -371 1662 -637 l223 -73 0 -2942 0 -2942 -32 5 c-18 2 -89 11 -158 19
-532 65 -991 190 -1365 375 -645 317 -1026 828 -1199 1607 -68 305 -94 558
-103 986 -3 169 -6 307 -7 307 -1 1 -368 12 -816 25 -638 19 -816 22 -823 12
-13 -18 0 -654 18 -864 99 -1194 468 -2101 1130 -2782 600 -616 1375 -1006
2416 -1215 248 -50 804 -126 919 -126 20 0 20 -8 20 -1060 l0 -1060 620 0 620
0 0 1049 0 1049 63 6 c34 3 125 10 202 16 209 16 526 57 740 96 1648 299 2772
1143 3298 2474 166 422 261 835 314 1375 25 259 25 939 -1 1140 -140 1101
-625 1971 -1467 2627 -718 559 -1724 957 -2984 1177 -66 12 -130 24 -142 26
l-23 5 0 2745 0 2744 53 -5 c412 -42 712 -99 992 -190 784 -255 1239 -716
1424 -1445 65 -254 101 -549 101 -826 l0 -123 50 0 c94 0 1144 -19 1374 -25
l229 -6 -6 243 c-10 360 -37 618 -98 923 -233 1173 -898 2055 -1941 2575 -489
243 -1050 405 -1688 484 -109 14 -442 46 -477 46 -10 0 -13 115 -13 540 l0
540 -620 0 -620 0 0 -539z m0 -4765 l0 -2565 -167 58 c-788 275 -1179 460
-1530 722 -130 97 -332 301 -415 419 -266 376 -394 826 -414 1463 -22 643 124
1169 430 1562 80 101 269 283 372 357 310 221 697 378 1170 474 179 36 426 71
507 73 l47 1 0 -2564z m1407 -4627 c551 -114 1050 -277 1434 -470 715 -358
1139 -842 1310 -1493 58 -222 71 -329 76 -623 27 -1368 -416 -2206 -1397
-2643 -371 -165 -869 -285 -1375 -329 -66 -6 -141 -13 -167 -16 l-48 -6 0
2806 c0 1778 4 2805 10 2805 5 0 76 -14 157 -31z"/>
</g>
</svg>
