<?xml version="1.0" standalone="no"?>
<!DOCTYPE svg PUBLIC "-//W3C//DTD SVG 20010904//EN"
 "http://www.w3.org/TR/2001/REC-SVG-20010904/DTD/svg10.dtd">
<svg version="1.0" xmlns="http://www.w3.org/2000/svg"
 width="60" height="60" viewBox="70 80 250 250"
 preserveAspectRatio="xMidYMid meet">
<metadata>
Created by potrace 1.16, written by Peter Selinger 2001-2019
</metadata>
<g transform="translate(0.000000,400.000000) scale(0.100000,-0.100000)"
fill="#000000" stroke="none">
<path d="M1660 2887 l0 -173 -72 -35 c-424 -202 -622 -706 -457 -1162 30 -85
112 -219 185 -304 l37 -43 -142 0 -142 0 3 -112 3 -113 925 0 925 0 0 110 0
110 -575 5 c-542 5 -578 6 -620 25 -214 93 -354 258 -411 485 -18 71 -21 103
-16 200 10 225 100 398 275 529 37 28 70 51 74 51 4 0 9 -74 10 -165 l3 -166
110 -2 110 -2 3 206 c3 238 -7 219 112 219 120 0 110 19 110 -216 l0 -204 115
0 115 0 2 166 3 165 50 -33 c117 -78 221 -214 273 -360 21 -60 26 -96 30 -201
l4 -128 112 3 111 3 -1 115 c0 71 -7 144 -17 190 -64 278 -259 521 -515 639
l-52 24 -2 171 -3 171 -110 0 -110 0 -3 -140 -3 -141 -109 0 -109 0 -3 141 -3
140 -112 3 -113 3 0 -174z"/>
</g>
</svg>
