<?xml version="1.0" standalone="no"?>
<!DOCTYPE svg PUBLIC "-//W3C//DTD SVG 20010904//EN"
 "http://www.w3.org/TR/2001/REC-SVG-20010904/DTD/svg10.dtd">
<svg version="1.0" xmlns="http://www.w3.org/2000/svg"
 width="590.000000pt" height="590.000000pt" viewBox="0 0 520.000000 490.000000"
 preserveAspectRatio="xMidYMid meet">

<g transform="translate(0.000000,512.000000) scale(0.100000,-0.100000)"
fill="#bababa" stroke="none">
<path d="M3827 3911 c-20 -44 -38 -81 -41 -81 -2 0 -39 19 -81 41 -123 66
-153 73 -244 49 -103 -26 -143 -44 -187 -82 -34 -30 -36 -35 -30 -76 12 -88
29 -102 193 -161 191 -68 397 -168 445 -215 72 -70 58 -124 -40 -152 -34 -10
-65 -26 -77 -41 -17 -21 -27 -24 -68 -21 l-48 3 -86 195 c-47 107 -87 196 -88
198 -5 6 -169 -59 -211 -83 -42 -24 -44 -29 -39 -59 l7 -32 -89 42 c-419 203
-862 124 -1218 -217 -70 -66 -72 -67 -139 -74 -130 -14 -271 -1 -374 34 -52
17 -115 43 -140 58 -76 43 -181 131 -226 189 -24 32 -58 62 -81 73 -98 46
-314 71 -608 71 l-171 0 28 -29 27 -29 -38 -18 c-29 -15 -38 -25 -38 -44 0
-33 36 -50 128 -57 l72 -6 85 -84 c227 -225 446 -358 610 -371 58 -4 90 -17
300 -121 l235 -116 102 -175 c80 -136 103 -183 103 -212 0 -40 3 -39 -93 -59
-65 -14 -67 -13 -91 51 -49 128 -188 293 -317 376 -269 174 -613 179 -897 12
-85 -50 -239 -208 -289 -298 -149 -267 -149 -573 0 -840 58 -103 196 -242 302
-304 265 -154 576 -154 853 0 90 50 256 216 300 302 18 34 37 62 43 62 5 0 50
-31 99 -70 l90 -70 597 0 c540 0 905 10 945 25 13 5 11 18 -8 91 -66 246 -53
456 34 575 32 42 110 114 117 107 2 -2 -5 -33 -17 -68 -19 -55 -22 -89 -22
-225 -1 -141 2 -169 22 -234 76 -241 232 -425 447 -527 141 -67 196 -78 370
-78 141 0 156 2 245 32 52 17 131 52 175 78 106 62 244 201 302 304 149 267
149 573 0 840 -50 90 -204 248 -289 298 -125 74 -285 122 -405 122 l-58 0 48
32 48 31 -26 27 c-31 33 -31 36 3 45 40 9 99 51 107 75 4 13 -2 37 -15 63 -25
47 -177 251 -352 470 -96 120 -117 153 -113 172 3 14 7 36 10 49 10 50 -15
124 -59 172 l-42 47 -37 -82z m-2842 -1376 c105 -28 184 -74 265 -155 71 -70
143 -180 128 -195 -3 -4 -140 -35 -303 -70 -163 -34 -298 -65 -301 -67 -4 -5
31 -206 38 -213 4 -4 293 7 506 20 108 6 107 10 62 -101 -153 -383 -651 -488
-944 -199 -104 102 -162 227 -173 371 -20 279 153 528 422 605 77 22 222 24
300 4z m3439 0 c160 -42 304 -160 374 -306 47 -98 62 -162 62 -262 0 -261
-190 -502 -441 -562 -205 -48 -401 7 -550 156 -117 116 -172 246 -172 409 0
147 53 286 148 388 119 129 258 191 425 192 54 0 121 -7 154 -15z m-2553 -702
c11 -27 28 -56 36 -65 15 -17 11 -18 -68 -18 -46 0 -107 -3 -136 -6 l-52 -7 9
39 c5 22 11 51 15 66 5 25 9 27 63 31 31 2 70 4 85 5 24 2 30 -4 48 -45z"/>
</g>
</svg>
